<?xml version="1.0" standalone="no"?><!DOCTYPE svg PUBLIC "-//W3C//DTD SVG 1.1//EN" "http://www.w3.org/Graphics/SVG/1.1/DTD/svg11.dtd"><svg t="1624663851317" class="icon" viewBox="0 0 1024 1024" version="1.1" xmlns="http://www.w3.org/2000/svg" p-id="1667" xmlns:xlink="http://www.w3.org/1999/xlink" width="200" height="200"><defs><style type="text/css"></style></defs><path d="M110.956725 341.835294a66.439529 66.439529 0 0 1-60.717177-19.275294 72.161882 72.161882 0 0 1 0-99.930353L244.438136 20.48 246.365666 18.552471A66.499765 66.499765 0 0 1 340.332725 20.48a72.161882 72.161882 0 0 1 0 99.930353L253.292725 211.004235h350.147764c210.221176 0 382.072471 168.357647 389.421177 378.096941l0.240941 14.034824c0 216.244706-174.802824 392.131765-389.662118 392.131765H135.833901a77.824 77.824 0 0 1-69.993412-38.249412c-14.637176-24.696471-14.637176-34.876235 0-59.632941 14.576941-24.696471 41.441882-39.393882 69.993412-38.249412h496.579765c129.024-0.120471 233.592471-126.072471 233.773176-256 0-129.686588-104.809412-261.300706-233.773176-261.300706z" p-id="1668"></path></svg>